<svg xmlns="http://www.w3.org/2000/svg" width="500px" height="500px" viewBox="0 0 1000 1000"><g><path d="M160,2 838,2 Q944,56 998,160 L998,838 Q944,944 838,998 L160,998 Q56,944 2,838 L2,160 Q56,56 160,2" stroke="black" stroke-width="4" fill="#272525"></path><path d="M220,5 775,5 Q924,76 995,220 L995,775 Q924,924 775,995 L220,995 Q76,924 5,775 L5,220 Q76,76 220,5" stroke="black" stroke-width="4" fill="#fff"></path><circle cx="500" cy="500" r="445" fill="#d6e8f5"></circle><path d="M250,250 Q195,172 260,125" stroke-width="92" stroke="#1f1f56" fill="transparent" stroke-linecap="round"></path><path d="M250,250 Q172,195 125,260" stroke-width="92" stroke="#1f1f56" fill="transparent" stroke-linecap="round"></path><path d="M750,750 Q805,828 740,875" stroke-width="92" stroke="#1f1f56" fill="transparent" stroke-linecap="round"></path><path d="M750,750 Q828,805 875,740" stroke-width="92" stroke="#1f1f56" fill="transparent" stroke-linecap="round"></path><path d="M750,250 Q805,172 740,125" stroke-width="92" stroke="#1f1f56" fill="transparent" stroke-linecap="round"></path><path d="M750,250 Q828,195 875,260" stroke-width="92" stroke="#1f1f56" fill="transparent" stroke-linecap="round"></path><path d="M250,750 Q195,828 260,875" stroke-width="92" stroke="#1f1f56" fill="transparent" stroke-linecap="round"></path><path d="M250,750 Q172,805 125,740" stroke-width="92" stroke="#1f1f56" fill="transparent" stroke-linecap="round"></path><line x1="160" y1="160" x2="840" y2="840" stroke="#1f1f56" stroke-width="110" fill="transparent"></line><line x1="160" y1="840" x2="840" y2="160" stroke="#1f1f56" stroke-width="110" fill="transparent"></line><circle cx="500" cy="500" r="445" stroke="#1f1f56" stroke-width="95" fill="transparent"></circle><circle cx="219.42958916356991" cy="148.17583288938658" r="30" stroke="black" stroke-width="4" fill="#fff"></circle><circle cx="304.75231739709886" cy="94.56400944391142" r="30" stroke="black" stroke-width="4" fill="#fff"></circle><circle cx="399.8655797196585" cy="61.28243951817936" r="30" stroke="black" stroke-width="4" fill="#fff"></circle><circle cx="500" cy="50" r="30" stroke="black" stroke-width="4" fill="#fff"></circle><circle cx="600.1344202803415" cy="61.28243951817936" r="30" stroke="black" stroke-width="4" fill="#fff"></circle><circle cx="695.2476826029012" cy="94.56400944391142" r="30" stroke="black" stroke-width="4" fill="#fff"></circle><circle cx="780.5704108364301" cy="148.17583288938658" r="30" stroke="black" stroke-width="4" fill="#fff"></circle><circle cx="851.8241671106134" cy="219.42958916356991" r="30" stroke="black" stroke-width="4" fill="#fff"></circle><circle cx="905.4359905560887" cy="304.7523173970989" r="30" stroke="black" stroke-width="4" fill="#fff"></circle><circle cx="938.7175604818207" cy="399.8655797196586" r="30" stroke="black" stroke-width="4" fill="#fff"></circle><circle cx="950" cy="500" r="30" stroke="black" stroke-width="4" fill="#fff"></circle><circle cx="938.7175604818207" cy="600.1344202803415" r="30" stroke="black" stroke-width="4" fill="#fff"></circle><circle cx="905.4359905560887" cy="695.2476826029011" r="30" stroke="black" stroke-width="4" fill="#fff"></circle><circle cx="851.8241671106134" cy="780.5704108364301" r="30" stroke="black" stroke-width="4" fill="#fff"></circle><circle cx="780.57041083643" cy="851.8241671106135" r="30" stroke="black" stroke-width="4" fill="#fff"></circle><circle cx="695.247682602901" cy="905.4359905560887" r="30" stroke="black" stroke-width="4" fill="#fff"></circle><circle cx="600.1344202803415" cy="938.7175604818207" r="30" stroke="black" stroke-width="4" fill="#fff"></circle><circle cx="500" cy="950" r="30" stroke="black" stroke-width="4" fill="#fff"></circle><circle cx="399.8655797196585" cy="938.7175604818207" r="30" stroke="black" stroke-width="4" fill="#fff"></circle><circle cx="304.75231739709886" cy="905.4359905560887" r="30" stroke="black" stroke-width="4" fill="#fff"></circle><circle cx="219.42958916357009" cy="851.8241671106136" r="30" stroke="black" stroke-width="4" fill="#fff"></circle><circle cx="148.1758328893865" cy="780.57041083643" r="30" stroke="black" stroke-width="4" fill="#fff"></circle><circle cx="94.56400944391142" cy="695.2476826029011" r="30" stroke="black" stroke-width="4" fill="#fff"></circle><circle cx="61.28243951817929" cy="600.1344202803414" r="30" stroke="black" stroke-width="4" fill="#fff"></circle><circle cx="50" cy="500.00000000000006" r="30" stroke="black" stroke-width="4" fill="#fff"></circle><circle cx="61.28243951817943" cy="399.8655797196584" r="30" stroke="black" stroke-width="4" fill="#fff"></circle><circle cx="94.56400944391142" cy="304.7523173970989" r="30" stroke="black" stroke-width="4" fill="#fff"></circle><circle cx="148.1758328893867" cy="219.4295891635698" r="30" stroke="black" stroke-width="4" fill="#fff"></circle><circle cx="51.76425449689418" cy="217.1843065647258" r="30" stroke="black" stroke-width="4" fill="#fff"></circle><circle cx="51.76425449689418" cy="217.1843065647258" r="32.5" stroke-width="6" stroke="#ee0000" fill="transparent"></circle><svg x="31.764254496894182" y="197.1843065647258" width="40" height="40" viewBox="0 0 100 100"><polygon points="2,50 50,15, 98,50 80,50 80,80 20,80 20,50" fill="#ee0000"></polygon></svg><circle cx="224.22835533724648" cy="224.22835533724646" r="30" stroke="black" stroke-width="4" fill="#fff"></circle><circle cx="224.22835533724648" cy="224.22835533724646" r="32.5" stroke-width="6" stroke="#ee0000" fill="transparent"></circle><text x="224.22835533724648" y="239.22835533724646" fill="#b60000" text-anchor="middle" font-size="44px">1</text><circle cx="98.49055827645365" cy="154.03733119475717" r="30" stroke="black" stroke-width="4" fill="#fff"></circle><circle cx="98.49055827645365" cy="154.03733119475717" r="32.5" stroke-width="6" stroke="#ee0000" fill="transparent"></circle><svg x="78.49055827645365" y="134.03733119475717" width="40" height="40" viewBox="0 0 100 100"><polygon points="2,50 50,15, 98,50 80,50 80,80 20,80 20,50" fill="#ee0000"></polygon></svg><circle cx="277.26136392623755" cy="277.2613639262375" r="30" stroke="black" stroke-width="4" fill="#fff"></circle><circle cx="277.26136392623755" cy="277.2613639262375" r="32.5" stroke-width="6" stroke="#ee0000" fill="transparent"></circle><text x="277.26136392623755" y="292.2613639262375" fill="#b60000" text-anchor="middle" font-size="44px">2</text><circle cx="154.03733119475726" cy="98.49055827645358" r="30" stroke="black" stroke-width="4" fill="#fff"></circle><circle cx="154.03733119475726" cy="98.49055827645358" r="32.5" stroke-width="6" stroke="#ee0000" fill="transparent"></circle><svg x="134.03733119475726" y="78.49055827645358" width="40" height="40" viewBox="0 0 100 100"><polygon points="2,50 50,15, 98,50 80,50 80,80 20,80 20,50" fill="#ee0000"></polygon></svg><circle cx="330.29437251522864" cy="330.2943725152286" r="30" stroke="black" stroke-width="4" fill="#fff"></circle><circle cx="330.29437251522864" cy="330.2943725152286" r="32.5" stroke-width="6" stroke="#ee0000" fill="transparent"></circle><text x="330.29437251522864" y="345.2943725152286" fill="#b60000" text-anchor="middle" font-size="44px">3</text><circle cx="217.18430656472592" cy="51.76425449689418" r="30" stroke="black" stroke-width="4" fill="#fff"></circle><circle cx="217.18430656472592" cy="51.76425449689418" r="32.5" stroke-width="6" stroke="#ee0000" fill="transparent"></circle><svg x="197.18430656472592" y="31.764254496894182" width="40" height="40" viewBox="0 0 100 100"><polygon points="2,50 50,15, 98,50 80,50 80,80 20,80 20,50" fill="#ee0000"></polygon></svg><circle cx="383.32738110421974" cy="383.3273811042196" r="30" stroke="black" stroke-width="4" fill="#fff"></circle><circle cx="383.32738110421974" cy="383.3273811042196" r="32.5" stroke-width="6" stroke="#ee0000" fill="transparent"></circle><text x="383.32738110421974" y="398.3273811042196" fill="#b60000" text-anchor="middle" font-size="44px">4</text><circle cx="219.42958916356991" cy="148.17583288938658" r="32.5" stroke-width="6" stroke="#ee0000" fill="transparent"></circle><text x="219.42958916356991" y="154.67583288938658" fill="#b60000" font-size="22.5px" text-anchor="middle">Start</text><svg x="140.00024784788963" y="213.64326714669494" width="100" height="100" viewBox="0 0 100 100"><path d="M10,80 Q35,25 75,65 L71,70 80,71 79,61.5 75,65" transform="rotate(0 50 50)" stroke-width="13" stroke="#ee0000" fill="transparent"></path></svg><circle cx="782.815693435274" cy="51.76425449689411" r="30" stroke="black" stroke-width="4" fill="#fff"></circle><circle cx="782.815693435274" cy="51.76425449689411" r="32.5" stroke-width="6" stroke="#0046ff" fill="transparent"></circle><svg x="762.815693435274" y="31.76425449689411" width="40" height="40" viewBox="0 0 100 100"><polygon points="2,50 50,15, 98,50 80,50 80,80 20,80 20,50" fill="#0046ff"></polygon></svg><circle cx="775.7716446627535" cy="224.22835533724648" r="30" stroke="black" stroke-width="4" fill="#fff"></circle><circle cx="775.7716446627535" cy="224.22835533724648" r="32.5" stroke-width="6" stroke="#0046ff" fill="transparent"></circle><text x="775.7716446627535" y="239.22835533724648" fill="#0000b7" text-anchor="middle" font-size="44px">1</text><circle cx="845.962668805243" cy="98.49055827645373" r="30" stroke="black" stroke-width="4" fill="#fff"></circle><circle cx="845.962668805243" cy="98.49055827645373" r="32.5" stroke-width="6" stroke="#0046ff" fill="transparent"></circle><svg x="825.962668805243" y="78.49055827645373" width="40" height="40" viewBox="0 0 100 100"><polygon points="2,50 50,15, 98,50 80,50 80,80 20,80 20,50" fill="#0046ff"></polygon></svg><circle cx="722.7386360737626" cy="277.26136392623755" r="30" stroke="black" stroke-width="4" fill="#fff"></circle><circle cx="722.7386360737626" cy="277.26136392623755" r="32.5" stroke-width="6" stroke="#0046ff" fill="transparent"></circle><text x="722.7386360737626" y="292.26136392623755" fill="#0000b7" text-anchor="middle" font-size="44px">2</text><circle cx="901.5094417235463" cy="154.0373311947571" r="30" stroke="black" stroke-width="4" fill="#fff"></circle><circle cx="901.5094417235463" cy="154.0373311947571" r="32.5" stroke-width="6" stroke="#0046ff" fill="transparent"></circle><svg x="881.5094417235463" y="134.0373311947571" width="40" height="40" viewBox="0 0 100 100"><polygon points="2,50 50,15, 98,50 80,50 80,80 20,80 20,50" fill="#0046ff"></polygon></svg><circle cx="669.7056274847714" cy="330.29437251522864" r="30" stroke="black" stroke-width="4" fill="#fff"></circle><circle cx="669.7056274847714" cy="330.29437251522864" r="32.5" stroke-width="6" stroke="#0046ff" fill="transparent"></circle><text x="669.7056274847714" y="345.29437251522864" fill="#0000b7" text-anchor="middle" font-size="44px">3</text><circle cx="948.2357455031058" cy="217.18430656472592" r="30" stroke="black" stroke-width="4" fill="#fff"></circle><circle cx="948.2357455031058" cy="217.18430656472592" r="32.5" stroke-width="6" stroke="#0046ff" fill="transparent"></circle><svg x="928.2357455031058" y="197.18430656472592" width="40" height="40" viewBox="0 0 100 100"><polygon points="2,50 50,15, 98,50 80,50 80,80 20,80 20,50" fill="#0046ff"></polygon></svg><circle cx="616.6726188957804" cy="383.32738110421974" r="30" stroke="black" stroke-width="4" fill="#fff"></circle><circle cx="616.6726188957804" cy="383.32738110421974" r="32.5" stroke-width="6" stroke="#0046ff" fill="transparent"></circle><text x="616.6726188957804" y="398.32738110421974" fill="#0000b7" text-anchor="middle" font-size="44px">4</text><circle cx="851.8241671106134" cy="219.42958916356991" r="32.5" stroke-width="6" stroke="#0046ff" fill="transparent"></circle><text x="851.8241671106134" y="225.92958916356991" fill="#0000b7" font-size="22.5px" text-anchor="middle">Start</text><svg x="686.3567328533052" y="140.00024784788963" width="100" height="100" viewBox="0 0 100 100"><path d="M10,80 Q35,25 75,65 L71,70 80,71 79,61.5 75,65" transform="rotate(90 50 50)" stroke-width="13" stroke="#0046ff" fill="transparent"></path></svg><circle cx="948.2357455031058" cy="782.815693435274" r="30" stroke="black" stroke-width="4" fill="#fff"></circle><circle cx="948.2357455031058" cy="782.815693435274" r="32.5" stroke-width="6" stroke="#ffdd00" fill="transparent"></circle><svg x="928.2357455031058" y="762.815693435274" width="40" height="40" viewBox="0 0 100 100"><polygon points="2,50 50,15, 98,50 80,50 80,80 20,80 20,50" fill="#ffdd00"></polygon></svg><circle cx="775.7716446627535" cy="775.7716446627535" r="30" stroke="black" stroke-width="4" fill="#fff"></circle><circle cx="775.7716446627535" cy="775.7716446627535" r="32.5" stroke-width="6" stroke="#ffdd00" fill="transparent"></circle><text x="775.7716446627535" y="790.7716446627535" fill="#887600" text-anchor="middle" font-size="44px">1</text><circle cx="901.5094417235463" cy="845.962668805243" r="30" stroke="black" stroke-width="4" fill="#fff"></circle><circle cx="901.5094417235463" cy="845.962668805243" r="32.5" stroke-width="6" stroke="#ffdd00" fill="transparent"></circle><svg x="881.5094417235463" y="825.962668805243" width="40" height="40" viewBox="0 0 100 100"><polygon points="2,50 50,15, 98,50 80,50 80,80 20,80 20,50" fill="#ffdd00"></polygon></svg><circle cx="722.7386360737626" cy="722.7386360737624" r="30" stroke="black" stroke-width="4" fill="#fff"></circle><circle cx="722.7386360737626" cy="722.7386360737624" r="32.5" stroke-width="6" stroke="#ffdd00" fill="transparent"></circle><text x="722.7386360737626" y="737.7386360737624" fill="#887600" text-anchor="middle" font-size="44px">2</text><circle cx="845.962668805243" cy="901.5094417235463" r="30" stroke="black" stroke-width="4" fill="#fff"></circle><circle cx="845.962668805243" cy="901.5094417235463" r="32.5" stroke-width="6" stroke="#ffdd00" fill="transparent"></circle><svg x="825.962668805243" y="881.5094417235463" width="40" height="40" viewBox="0 0 100 100"><polygon points="2,50 50,15, 98,50 80,50 80,80 20,80 20,50" fill="#ffdd00"></polygon></svg><circle cx="669.7056274847714" cy="669.7056274847714" r="30" stroke="black" stroke-width="4" fill="#fff"></circle><circle cx="669.7056274847714" cy="669.7056274847714" r="32.5" stroke-width="6" stroke="#ffdd00" fill="transparent"></circle><text x="669.7056274847714" y="684.7056274847714" fill="#887600" text-anchor="middle" font-size="44px">3</text><circle cx="782.815693435274" cy="948.2357455031058" r="30" stroke="black" stroke-width="4" fill="#fff"></circle><circle cx="782.815693435274" cy="948.2357455031058" r="32.5" stroke-width="6" stroke="#ffdd00" fill="transparent"></circle><svg x="762.815693435274" y="928.2357455031058" width="40" height="40" viewBox="0 0 100 100"><polygon points="2,50 50,15, 98,50 80,50 80,80 20,80 20,50" fill="#ffdd00"></polygon></svg><circle cx="616.6726188957804" cy="616.6726188957803" r="30" stroke="black" stroke-width="4" fill="#fff"></circle><circle cx="616.6726188957804" cy="616.6726188957803" r="32.5" stroke-width="6" stroke="#ffdd00" fill="transparent"></circle><text x="616.6726188957804" y="631.6726188957803" fill="#887600" text-anchor="middle" font-size="44px">4</text><circle cx="780.57041083643" cy="851.8241671106135" r="32.5" stroke-width="6" stroke="#ffdd00" fill="transparent"></circle><text x="780.57041083643" y="858.3241671106135" fill="#887600" font-size="22.5px" text-anchor="middle">Start</text><svg x="759.9997521521104" y="686.356732853305" width="100" height="100" viewBox="0 0 100 100"><path d="M10,80 Q35,25 75,65 L71,70 80,71 79,61.5 75,65" transform="rotate(180 50 50)" stroke-width="13" stroke="#ffdd00" fill="transparent"></path></svg><circle cx="217.18430656472592" cy="948.2357455031058" r="30" stroke="black" stroke-width="4" fill="#fff"></circle><circle cx="217.18430656472592" cy="948.2357455031058" r="32.5" stroke-width="6" stroke="#008a00" fill="transparent"></circle><svg x="197.18430656472592" y="928.2357455031058" width="40" height="40" viewBox="0 0 100 100"><polygon points="2,50 50,15, 98,50 80,50 80,80 20,80 20,50" fill="#008a00"></polygon></svg><circle cx="224.22835533724648" cy="775.7716446627535" r="30" stroke="black" stroke-width="4" fill="#fff"></circle><circle cx="224.22835533724648" cy="775.7716446627535" r="32.5" stroke-width="6" stroke="#008a00" fill="transparent"></circle><text x="224.22835533724648" y="790.7716446627535" fill="#006800" text-anchor="middle" font-size="44px">1</text><circle cx="154.03733119475726" cy="901.5094417235464" r="30" stroke="black" stroke-width="4" fill="#fff"></circle><circle cx="154.03733119475726" cy="901.5094417235464" r="32.5" stroke-width="6" stroke="#008a00" fill="transparent"></circle><svg x="134.03733119475726" y="881.5094417235464" width="40" height="40" viewBox="0 0 100 100"><polygon points="2,50 50,15, 98,50 80,50 80,80 20,80 20,50" fill="#008a00"></polygon></svg><circle cx="277.26136392623755" cy="722.7386360737626" r="30" stroke="black" stroke-width="4" fill="#fff"></circle><circle cx="277.26136392623755" cy="722.7386360737626" r="32.5" stroke-width="6" stroke="#008a00" fill="transparent"></circle><text x="277.26136392623755" y="737.7386360737626" fill="#006800" text-anchor="middle" font-size="44px">2</text><circle cx="98.49055827645365" cy="845.9626688052429" r="30" stroke="black" stroke-width="4" fill="#fff"></circle><circle cx="98.49055827645365" cy="845.9626688052429" r="32.5" stroke-width="6" stroke="#008a00" fill="transparent"></circle><svg x="78.49055827645365" y="825.9626688052429" width="40" height="40" viewBox="0 0 100 100"><polygon points="2,50 50,15, 98,50 80,50 80,80 20,80 20,50" fill="#008a00"></polygon></svg><circle cx="330.29437251522864" cy="669.7056274847714" r="30" stroke="black" stroke-width="4" fill="#fff"></circle><circle cx="330.29437251522864" cy="669.7056274847714" r="32.5" stroke-width="6" stroke="#008a00" fill="transparent"></circle><text x="330.29437251522864" y="684.7056274847714" fill="#006800" text-anchor="middle" font-size="44px">3</text><circle cx="51.76425449689418" cy="782.8156934352742" r="30" stroke="black" stroke-width="4" fill="#fff"></circle><circle cx="51.76425449689418" cy="782.8156934352742" r="32.5" stroke-width="6" stroke="#008a00" fill="transparent"></circle><svg x="31.764254496894182" y="762.8156934352742" width="40" height="40" viewBox="0 0 100 100"><polygon points="2,50 50,15, 98,50 80,50 80,80 20,80 20,50" fill="#008a00"></polygon></svg><circle cx="383.32738110421974" cy="616.6726188957804" r="30" stroke="black" stroke-width="4" fill="#fff"></circle><circle cx="383.32738110421974" cy="616.6726188957804" r="32.5" stroke-width="6" stroke="#008a00" fill="transparent"></circle><text x="383.32738110421974" y="631.6726188957804" fill="#006800" text-anchor="middle" font-size="44px">4</text><circle cx="148.1758328893865" cy="780.57041083643" r="32.5" stroke-width="6" stroke="#008a00" fill="transparent"></circle><text x="148.1758328893865" y="787.07041083643" fill="#006800" font-size="22.5px" text-anchor="middle">Start</text><svg x="213.64326714669505" y="759.9997521521104" width="100" height="100" viewBox="0 0 100 100"><path d="M10,80 Q35,25 75,65 L71,70 80,71 79,61.5 75,65" transform="rotate(270 50 50)" stroke-width="13" stroke="#008a00" fill="transparent"></path></svg><svg x="350" y="350" width="300" height="300" viewBox="0 0 250 250"><polygon points="105,2 145,2 248,105 248,145 145,248 105,248 2,145 2,105" stroke="black" stroke-width="3" fill="#f1f1f1"></polygon></svg></g>
<g><circle cx="500" cy="500" r="100" stroke="black" stroke-width="3" fill="#c0c0c0"></circle>
<g transform="rotate(5.005148251220675 500 500)"><svg x="456.6441929080731" y="487.7237546399027" width="60" height="60" viewBox="0 0 100 100"><rect x="0" y="0" width="100" height="100" rx="20" stroke="#000" stroke-width="5" fill="#fffff0"></rect><circle cx="50" cy="33" r="10" fill="#000"></circle><circle cx="50" cy="67" r="10" fill="#000"></circle><circle cx="25" cy="33" r="10" fill="#000"></circle><circle cx="25" cy="67" r="10" fill="#000"></circle><circle cx="75" cy="33" r="10" fill="#000"></circle><circle cx="75" cy="66" r="10" fill="#000"></circle></svg></g>
<circle cx="500" cy="500" r="90" font-size="1rem" stroke="black" stroke-width="3" fill="transparent"></circle></g></svg>